<?xml version="1.0" encoding="UTF-8" standalone="no"?><!DOCTYPE svg PUBLIC "-//W3C//DTD SVG 1.1//EN" "http://www.w3.org/Graphics/SVG/1.1/DTD/svg11.dtd"><svg width="100%" height="100%" viewBox="0 0 1000 1000" version="1.1" xmlns="http://www.w3.org/2000/svg" xmlns:xlink="http://www.w3.org/1999/xlink" xml:space="preserve" xmlns:serif="http://www.serif.com/" style="fill-rule:evenodd;clip-rule:evenodd;stroke-linejoin:round;stroke-miterlimit:1.41421;"><rect id="Cloud_1" x="0" y="0" width="1000" height="1000" style="fill:none;"/><rect x="0" y="0" width="1000" height="1000" style="fill:#000026;"/><circle cx="397.241" cy="407.56" r="176.255" style="fill:#0ff;fill-opacity:0.14902;"/><circle cx="674.872" cy="601.375" r="101.375" style="fill:#f0f;fill-opacity:0.14902;"/><path d="M615.445,756.692c-0.241,-0.139 -0.476,-0.292 -0.704,-0.462c-0.417,-0.31 -0.504,-0.41 -0.884,-0.763l-33.171,-33.171c-2.144,-2.304 -2.259,-3.308 -2.343,-5.657l0,-78.049c0.145,-3.966 3.173,-7.517 7.125,-7.952c1.119,-0.123 1.389,-0.026 1.75,0c3.53,0.52 6.524,3.283 7.04,6.788c0.076,0.514 0.066,0.646 0.085,1.164l0,74.735l30.828,30.828c0,0 0.545,0.681 1.101,1.763c3.452,-1.911 7.374,-3.071 11.607,-3.19c0.289,-0.007 0.578,-0.01 0.867,-0.009c12.297,0.114 23.834,9.403 26.336,21.614c2.506,12.234 -4.685,25.759 -16.281,30.5c-13.774,5.631 -31.683,-2.272 -36.166,-17.332c-2.074,-6.97 -0.8,-14.525 2.81,-20.807Zm-242.049,-10.896c0.341,-0.588 0.752,-1.14 1.219,-1.643l30.828,-30.828l0,-74.735c0,0 0.352,-3.739 2.447,-5.759c1.263,-1.217 2.933,-2.001 4.678,-2.193c1.118,-0.123 1.389,-0.026 1.75,0c1.776,0.262 2.051,0.462 2.783,0.838c2.597,1.335 4.234,4.165 4.342,7.114l0,78.049c-0.113,3.146 -0.742,3.937 -2.344,5.657l-33.17,33.171c-0.5,0.464 -0.889,0.789 -1.229,1.031c1.359,2.315 2.372,4.839 2.953,7.505c2.685,12.336 -4.523,26.047 -16.21,30.827c-13.791,5.64 -31.715,-2.372 -36.168,-17.331c-4.661,-15.661 7.584,-34.274 25.244,-34.773c0.289,-0.007 0.578,-0.01 0.868,-0.009c4.202,0.039 8.315,1.149 12.009,3.079Zm-12.256,12.921c-4.171,0.039 -8.191,2.62 -9.958,6.397c-3.082,6.59 2.251,15.672 9.958,15.72c8.268,0.052 14.674,-11.263 8.348,-18.389c-2.036,-2.294 -5.039,-3.678 -8.13,-3.727c-0.072,-0.001 -0.145,-0.001 -0.218,-0.001Zm277.36,0c-7.571,0.07 -13.598,9.477 -9.526,16.552c4.191,7.28 17.707,6.898 20.275,-2.594c1.749,-6.467 -3.445,-13.983 -10.749,-13.958Zm-146.607,-33.756l0,-51.249c0.036,-1.362 0.154,-1.741 0.391,-2.472c0.948,-2.916 3.7,-5.161 6.773,-5.484c0.807,-0.085 0.997,-0.039 1.255,-0.033c1.539,0.121 1.994,0.307 2.835,0.681c2.55,1.135 4.409,3.681 4.702,6.472c0.039,0.371 0.034,0.464 0.044,0.836l0,51.252c8.857,2.902 16.221,10.368 18.365,19.65c2.862,12.385 -4.306,26.319 -16.135,31.157c-13.791,5.641 -31.715,-2.372 -36.168,-17.331c-3.99,-13.406 4.388,-28.943 17.938,-33.479Zm7.927,14.697c-4.172,0.039 -8.194,2.628 -9.958,6.397c-3.07,6.563 2.22,15.575 9.813,15.719c4.834,0.091 9.517,-3.32 10.859,-8.032c1.811,-6.362 -3.194,-13.785 -10.211,-14.076c-0.167,-0.006 -0.335,-0.008 -0.503,-0.008Zm225.783,-8.611l-25.535,0c-3.146,-0.113 -3.937,-0.742 -5.657,-2.344l-51.286,-51.285c-2.145,-2.304 -2.259,-3.308 -2.343,-5.657l0,-70.244c0.152,-3.956 3.179,-7.496 7.083,-7.947c1.17,-0.135 1.455,-0.029 1.835,0c3.899,0.602 6.929,3.945 7.082,7.947l0,66.93l46.599,46.6l22.554,0c3.41,-10.233 12.659,-18.701 24.825,-19.051c0.291,-0.006 0.581,-0.009 0.872,-0.008c12.188,0.118 23.643,9.247 26.264,21.286c2.684,12.332 -4.522,26.048 -16.211,30.827c-13.68,5.593 -31.434,-2.128 -36.069,-17.01l-0.013,-0.044Zm-451.426,-16l22.228,0l46.599,-46.6l0,-66.93c0.072,-1.881 0.257,-2.19 0.58,-2.99c1.29,-3.203 4.7,-5.236 8.337,-4.957c3.9,0.602 6.929,3.945 7.083,7.947l0,70.244c-0.113,3.146 -0.742,3.937 -2.343,5.657l-51.286,51.285c-1.268,1.181 -2.829,2.019 -4.518,2.262c-0.503,0.072 -0.632,0.063 -1.139,0.082l-25.777,0c-2.454,7.499 -8.014,14.043 -15.384,17.055c-13.679,5.59 -31.434,-2.135 -36.067,-17.011c-4.886,-15.691 7.071,-34.576 25.144,-35.095c0.291,-0.006 0.581,-0.009 0.871,-0.008c11.422,0.111 22.211,8.102 25.672,19.059Zm477.208,-3.059c-4.182,0.04 -8.2,2.634 -9.959,6.396c-3.101,6.632 2.33,15.77 10.103,15.721c8.292,-0.052 14.501,-11.624 8.021,-18.589c-2.074,-2.229 -5.085,-3.539 -8.165,-3.528Zm-503.126,0c-7.601,0.073 -13.601,9.475 -9.528,16.552c4.191,7.281 17.708,6.897 20.275,-2.594c1.749,-6.469 -3.451,-13.983 -10.747,-13.958Zm359.067,-320.577c4.312,3.684 7.72,8.567 11.107,13.357c7.864,11.119 14.122,23.35 18.592,36.199l0.283,0.827l0.424,2.28c-0.083,0.768 -0.055,1.557 -0.249,2.305c-0.524,2.032 -1.081,2.36 -2.373,3.928l-22.441,20.339c1.774,11.381 1.824,23.194 0.101,34.709l-0.101,0.649l22.441,20.34c1.292,1.568 1.849,1.895 2.373,3.927c0.498,1.926 0.028,4.026 -0.605,5.836c-6.008,17.167 -15.341,33.217 -27.213,46.966l-0.576,0.66l-1.763,1.507c-1.858,0.821 -2.323,1.269 -4.421,1.227c-0.772,-0.015 -1.524,-0.255 -2.287,-0.382l-28.834,-9.264c-9.05,7.289 -19.251,13.207 -30.008,17.44l-0.614,0.239l-6.394,29.604c-0.712,1.902 -0.717,2.548 -2.213,4.018c-1.424,1.398 -3.499,2.042 -5.357,2.394c-18.152,3.437 -36.99,3.33 -55.143,-0.253l-2.185,-0.773c-1.64,-1.199 -2.26,-1.378 -3.273,-3.215c-0.372,-0.677 -0.541,-1.448 -0.812,-2.171l-6.394,-29.604c-10.822,-4.186 -21.003,-10.018 -30.108,-17.267l-0.513,-0.412l-28.835,9.264c-2.004,0.335 -2.566,0.653 -4.588,0.092c-1.923,-0.534 -3.519,-2.012 -4.75,-3.442c-12.036,-13.981 -21.375,-30.374 -27.352,-47.879l-0.424,-2.28c0.218,-2.019 0.062,-2.647 1.148,-4.443c0.399,-0.661 0.982,-1.193 1.474,-1.789l22.441,-20.34c-1.79,-11.479 -1.833,-23.196 -0.1,-34.709l0.1,-0.649l-22.441,-20.339c-1.292,-1.568 -1.849,-1.896 -2.373,-3.928c-0.498,-1.926 -0.027,-4.026 0.606,-5.835c6.015,-17.193 15.228,-33.087 27.212,-46.966l0.576,-0.661l1.763,-1.506c1.858,-0.822 2.323,-1.27 4.421,-1.228c0.772,0.016 1.524,0.255 2.287,0.382l28.835,9.265c9.074,-7.318 19.174,-13.18 30.007,-17.441l0.614,-0.238l6.394,-29.604c0.712,-1.903 0.717,-2.549 2.214,-4.019c1.425,-1.4 3.51,-2.044 5.356,-2.393c18.14,-3.434 36.99,-3.331 55.143,0.252l2.185,0.774c0.624,0.456 1.32,0.826 1.872,1.368c1.496,1.469 1.501,2.116 2.213,4.018l6.394,29.603c10.752,4.154 20.997,10.02 30.108,17.267l0.514,0.413l28.834,-9.265c2.279,-0.38 2.296,-0.381 4.588,-0.092c0.707,0.313 1.413,0.625 2.12,0.938Zm-107.444,-31.802c-6.452,0.03 -12.893,0.535 -19.261,1.509l-0.33,0.052l-6.195,28.683l-1.024,2.532c-0.605,0.68 -1.103,1.473 -1.816,2.04c-1.376,1.094 -3.114,1.544 -4.677,2.116c-11.269,4.156 -21.768,10.404 -30.78,18.282l-2.333,1.42c-2.66,0.549 -2.689,0.55 -5.379,0.173l-27.938,-8.976c-8.326,10.336 -15.053,21.966 -19.864,34.303l-0.121,0.312l21.743,19.707l1.681,2.154c0.287,0.865 0.725,1.694 0.859,2.595c0.474,3.186 -0.761,6.284 -1.174,9.558c-1.316,10.422 -0.929,21.044 1.109,31.338l0.065,2.732c-0.854,2.582 -0.867,2.606 -2.54,4.749l-21.743,19.707c4.781,12.375 11.481,24.007 19.776,34.356l0.209,0.26l27.938,-8.977l2.704,-0.379c0.892,0.184 1.828,0.219 2.675,0.553c1.638,0.645 2.897,1.925 4.172,2.993c9.223,7.671 19.866,13.64 31.221,17.514l2.397,1.31c1.807,2.03 1.821,2.054 2.84,4.573l6.195,28.683c13.121,2.047 26.537,2.054 39.641,0.051l0.33,-0.051l6.195,-28.683l1.024,-2.533c0.605,-0.68 1.103,-1.473 1.816,-2.04c1.376,-1.094 3.114,-1.544 4.677,-2.115c11.276,-4.157 21.771,-10.409 30.78,-18.283l2.333,-1.419c2.661,-0.55 2.689,-0.551 5.379,-0.174l27.938,8.977c8.393,-10.41 15.152,-22.126 19.985,-34.616l-21.742,-19.707c-1.13,-1.446 -2.273,-2.958 -2.54,-4.745c-0.26,-1.741 0.219,-3.471 0.506,-5.108c2.031,-11.85 1.883,-24.005 -0.443,-35.798l-0.063,-2.73c0.854,-2.579 0.867,-2.604 2.54,-4.745l21.742,-19.707c-4.794,-12.388 -11.495,-24.013 -19.776,-34.356l-0.209,-0.259l-27.938,8.976l-2.705,0.379c-0.891,-0.184 -1.827,-0.219 -2.674,-0.552c-1.639,-0.646 -2.895,-1.925 -4.171,-2.992c-9.241,-7.686 -19.842,-13.633 -31.223,-17.516l-2.396,-1.31c-1.807,-2.029 -1.822,-2.053 -2.84,-4.572l-6.195,-28.683c-6.74,-1.053 -13.584,-1.571 -20.38,-1.561Zm0.011,199.305c4.846,0 8.78,3.935 8.78,8.781c0,4.846 -3.934,8.78 -8.78,8.78c-4.846,0 -8.781,-3.934 -8.781,-8.78c0,-4.846 3.935,-8.781 8.781,-8.781Zm-227.202,-143.075c-0.062,0.008 -0.124,0.015 -0.187,0.022c-2.502,0.269 -7.128,-0.181 -11.329,0.3c-29.497,3.376 -54.661,29.67 -56.733,59.315c-2.416,34.575 26.564,68.461 63.701,68.815c17.419,0.055 34.839,0.104 52.258,0.147c4.303,0.01 7.785,3.501 7.785,7.804c0,0 0,0.001 0,0.001c0,2.073 -0.825,4.061 -2.292,5.525c-1.468,1.464 -3.458,2.284 -5.531,2.279c-17.44,-0.043 -34.88,-0.092 -52.319,-0.147c-31.548,-0.3 -61.886,-20.884 -73.642,-50.146c-12.621,-31.416 -2.538,-70.524 24.094,-91.975c12.585,-10.137 28.223,-16.267 44.435,-17.451c0,0 -1.47,-7.875 -1.908,-14.13c-2.75,-39.323 17.571,-79.486 51.263,-100.526c21.833,-13.634 48.546,-19.069 74.08,-15.33c0,0 4.518,-6.206 8.615,-10.971c25.443,-29.588 63.86,-47.638 103.2,-48.196c0.761,-0.008 1.522,-0.011 2.283,-0.009c44.142,0.267 87.051,22.469 112.81,59.104c0,0 7.335,-0.984 14.348,-1.115c41.809,-0.777 82.876,24.558 100.902,62.528c10.038,21.143 12.937,45.535 8.341,68.537c0,0 6.393,0.646 11.42,1.742c28.536,6.218 52.706,29.313 60.185,57.625c6.979,26.421 -0.759,56.192 -19.759,75.882c-14.732,15.268 -35.604,24.228 -56.969,24.431c-17.44,0.055 -34.88,0.104 -52.319,0.147c-2.073,0.005 -4.063,-0.815 -5.531,-2.279c-1.467,-1.464 -2.292,-3.452 -2.292,-5.525c0,0 0,-0.001 0,-0.001c0,-4.303 3.482,-7.794 7.785,-7.804c17.419,-0.043 34.839,-0.092 52.258,-0.147c28.229,-0.269 54.995,-20.962 61.933,-48.601c5.53,-22.033 -1.711,-46.832 -18.295,-62.457c-12.479,-11.758 -29.725,-18.126 -47.002,-17.421c-0.533,0.232 -1.091,0.418 -1.663,0.562c-0.227,0.059 -0.227,0.059 -0.455,0.12c-14.856,4.122 -28.206,14.589 -36.236,27.885c0,0 -2.564,3.417 -5.915,3.81c-5.911,0.695 -11.158,-6.567 -7.514,-12.522c9.795,-16.003 26.062,-28.8 43.661,-34.097c0.982,-4.383 2.441,-9.581 2.895,-14.713c3.197,-36.129 -16.621,-73.354 -48.708,-90.796c-18.745,-10.189 -40.997,-13.583 -62.008,-9.71l-0.674,0.034c-0.207,0.059 -0.214,0.061 -0.434,0.125c-14.602,4.395 -27.569,14.942 -35.408,28.311c0,0 -2.18,3.542 -5.575,4.221c-6.003,1.201 -11.961,-5.909 -8.247,-12.28c8.041,-13.791 20.869,-25.39 35.158,-32.005c-22.442,-28.837 -57.9,-47.286 -95.235,-47.966c-0.845,-0.012 -1.691,-0.017 -2.536,-0.016c-37.44,0.227 -74.068,18.608 -97.059,48.377c2.095,1.155 4.174,2.427 6.23,3.693c11.397,7.019 21.415,16.364 28.15,27.917c3.264,5.598 -2.075,14.137 -8.943,12.108c-3.202,-0.946 -4.804,-4.22 -7.059,-7.46c-8.244,-11.845 -20.807,-21.61 -34.151,-25.158c0,0 -0.102,-0.035 -0.275,-0.103c-30.437,-5.154 -63.539,5.67 -84.791,28.495c-21.119,22.681 -29.723,56.012 -22.378,86.355c4.681,1.048 8.831,3.373 13.027,5.604c12.93,6.874 24.407,16.733 32.059,29.291c0,0 2.355,4.851 0.104,8.528c-2.846,4.646 -10.647,4.943 -13.784,-0.23c-0.104,-0.172 -0.21,-0.343 -0.316,-0.514c-6.944,-11.073 -17.804,-19.757 -29.904,-25.049c-2.21,-0.966 -4.484,-1.803 -6.83,-2.371c0,0 -0.303,-0.142 -0.774,-0.419Zm227.954,15.341c21.021,0.201 41.451,12.896 50.829,31.748c7.703,15.484 7.896,34.418 0.306,50.169c-12.352,25.633 -45.453,39.644 -73.422,28.012c-18.239,-7.586 -31.924,-25.215 -34.673,-44.803c-2.544,-18.129 4.26,-37.325 17.668,-49.809c10.365,-9.65 24.297,-15.181 38.555,-15.317c0.246,0 0.491,0 0.737,0Zm71.503,90.661c4.846,0 8.781,3.935 8.781,8.781c0,4.846 -3.935,8.78 -8.781,8.78c-4.846,0 -8.78,-3.934 -8.78,-8.78c0,-4.846 3.934,-8.781 8.78,-8.781Zm-140.608,0c4.846,0 8.78,3.935 8.78,8.781c0,4.846 -3.934,8.78 -8.78,8.78c-4.846,0 -8.781,-3.934 -8.781,-8.78c0,-4.846 3.935,-8.781 8.781,-8.781Zm68.47,-74.661c-18.787,0.179 -36.551,14.621 -40.143,33.353c-2.552,13.312 1.977,27.757 11.674,37.228c11.352,11.087 29.349,14.775 44.276,8.671c13.162,-5.383 23.101,-17.989 25.169,-32.093c3.251,-22.168 -14.376,-45.422 -37.8,-47.059c-1.057,-0.073 -2.115,-0.103 -3.176,-0.1Zm72.138,-5.339c4.846,0 8.781,3.935 8.781,8.781c0,4.846 -3.935,8.78 -8.781,8.78c-4.846,0 -8.78,-3.934 -8.78,-8.78c0,-4.846 3.934,-8.781 8.78,-8.781Zm-140.608,0c4.846,0 8.78,3.935 8.78,8.781c0,4.846 -3.934,8.78 -8.78,8.78c-4.846,0 -8.781,-3.934 -8.781,-8.78c0,-4.846 3.935,-8.781 8.781,-8.781Zm68.353,-37.396c4.846,0 8.78,3.934 8.78,8.78c0,4.846 -3.934,8.781 -8.78,8.781c-4.846,0 -8.781,-3.935 -8.781,-8.781c0,-4.846 3.935,-8.78 8.781,-8.78Z" style="fill:url(#_Linear1);"/><defs><linearGradient id="_Linear1" x1="0" y1="0" x2="1" y2="0" gradientUnits="userSpaceOnUse" gradientTransform="matrix(622,0,0,585.485,189,503.908)"><stop offset="0" style="stop-color:#0ff;stop-opacity:1"/><stop offset="1" style="stop-color:#f0f;stop-opacity:1"/></linearGradient></defs></svg>